<svg width="20" height="20" viewBox="0 0 20 20" fill="none" xmlns="http://www.w3.org/2000/svg">
<path d="M10 0C10.918 0 11.8034 0.120443 12.6562 0.361328C13.5091 0.595703 14.3034 0.93099 15.0391 1.36719C15.7812 1.80339 16.4551 2.32747 17.0605 2.93945C17.6725 3.54492 18.1966 4.21875 18.6328 4.96094C19.069 5.69661 19.4043 6.49089 19.6387 7.34375C19.8796 8.19661 20 9.08203 20 10C20 10.918 19.8796 11.8034 19.6387 12.6562C19.4043 13.5091 19.069 14.3066 18.6328 15.0488C18.1966 15.7845 17.6725 16.4583 17.0605 17.0703C16.4551 17.6758 15.7812 18.1966 15.0391 18.6328C14.3034 19.069 13.5091 19.4076 12.6562 19.6484C11.8034 19.8828 10.918 20 10 20C9.08203 20 8.19661 19.8828 7.34375 19.6484C6.49089 19.4076 5.69336 19.069 4.95117 18.6328C4.21549 18.1966 3.54167 17.6758 2.92969 17.0703C2.32422 16.4583 1.80339 15.7845 1.36719 15.0488C0.93099 14.3066 0.592448 13.5091 0.351562 12.6562C0.117188 11.8034 0 10.918 0 10C0 9.08203 0.117188 8.19661 0.351562 7.34375C0.592448 6.49089 0.93099 5.69661 1.36719 4.96094C1.80339 4.21875 2.32422 3.54492 2.92969 2.93945C3.54167 2.32747 4.21549 1.80339 4.95117 1.36719C5.69336 0.93099 6.49089 0.595703 7.34375 0.361328C8.19661 0.120443 9.08203 0 10 0ZM15.8887 6.68945L14.5605 5.36133L8.125 11.7969L5.43945 9.11133L4.11133 10.4395L8.125 14.4531L15.8887 6.68945Z" fill="#0078D7"/>
</svg>
