<svg width="18" height="18" viewBox="0 0 100 100" fill="none" xmlns="http://www.w3.org/2000/svg">
<path fill-rule="evenodd" clip-rule="evenodd" d="M49.8471 0C22.3242 0 0 22.3242 0 49.8471C0 71.8654 14.3731 90.5199 33.945 97.2477C36.3914 97.5535 37.3089 96.0245 37.3089 94.8012C37.3089 93.578 37.3089 90.5199 37.3089 86.2385C23.5474 89.2966 20.4893 79.5107 20.4893 79.5107C18.3486 73.7003 14.9847 72.1712 14.9847 72.1712C10.3976 69.1131 15.2905 69.1131 15.2905 69.1131C20.1835 69.419 22.9358 74.3119 22.9358 74.3119C27.5229 81.9572 34.5566 79.8165 37.3089 78.5933C37.6147 75.2294 39.1437 73.0887 40.367 71.8654C29.3578 70.6422 17.737 66.3609 17.737 47.0948C17.737 41.5902 19.5719 37.3089 22.9358 33.6391C22.63 32.7217 20.7951 27.5229 23.5474 20.7951C23.5474 20.7951 27.8287 19.5719 37.3089 25.9939C41.2844 24.7706 45.5657 24.4648 49.8471 24.4648C54.1284 24.4648 58.4098 25.0765 62.3853 25.9939C71.8654 19.5719 76.1468 20.7951 76.1468 20.7951C78.8991 27.5229 77.0642 32.7217 76.7584 33.945C79.8165 37.3089 81.9572 41.896 81.9572 47.4006C81.9572 66.6667 70.3364 70.6422 59.3272 71.8654C61.1621 73.3945 62.6911 76.4526 62.6911 81.0397C62.6911 87.7676 62.6911 92.9664 62.6911 94.8012C62.6911 96.0245 63.6086 97.5535 66.055 97.2477C85.9327 90.5199 100 71.8654 100 49.8471C99.6942 22.3242 77.37 0 49.8471 0Z" transform="translate(0 1)" fill="white"/>
</svg>
