<svg width="18" height="18" viewBox="0 0 100 100" fill="none" xmlns="http://www.w3.org/2000/svg">
<path d="M0.0195121 31.8157C-0.602705 15.4334 13.7467 0.29414 30.1455 0.0977228C38.5036 -0.615148 46.6349 2.63055 52.9601 7.9242C50.3655 10.7771 47.7255 13.5969 44.9057 16.2369C39.3373 12.8539 32.633 10.2757 26.1251 12.5654C15.6285 15.5542 9.27172 27.9478 13.1561 38.2164C16.373 48.9411 29.4175 54.8267 39.6408 50.3215C44.9345 48.426 48.4247 43.5416 49.9562 38.2933C43.8892 38.1725 37.8209 38.248 31.7539 38.0804C31.7388 34.4707 31.7237 30.8748 31.7388 27.2651C41.8564 27.25 51.989 27.2198 62.1217 27.3104C62.7439 36.1547 61.439 45.6198 55.6894 52.7183C47.8162 62.851 33.2703 65.8247 21.4372 61.8497C8.87889 57.7249 -0.253824 45.0732 0.0195121 31.8157ZM81.8431 18.1626H90.8673C90.8838 21.1817 90.9126 24.2158 90.9291 27.2335C93.9468 27.2637 96.9809 27.2788 100 27.294V36.3346L90.9291 36.38C90.8989 39.4141 90.8838 42.4318 90.8673 45.466C87.8496 45.4509 84.8292 45.466 81.8266 45.466C81.7977 42.4318 81.7977 39.4141 81.7662 36.3951C78.7485 36.3635 75.7143 36.3498 72.6953 36.3333V27.2926C75.7143 27.2775 78.7334 27.2624 81.7662 27.2321C81.7813 24.2158 81.8115 21.1817 81.8431 18.1626Z" transform="translate(0 18)" fill="white"/>
</svg>
