<svg width="74" height="74" viewBox="0 0 100 100" fill="none" xmlns="http://www.w3.org/2000/svg">
<path d="M8.32704 16.6541C12.9259 16.6541 16.6541 12.9259 16.6541 8.32704C16.6541 3.72814 12.9259 0 8.32704 0C3.72814 0 0 3.72814 0 8.32704C0 12.9259 3.72814 16.6541 8.32704 16.6541Z" transform="translate(41.3857 41.6729)" fill="#61DAFB"/>
<path fill-rule="evenodd" clip-rule="evenodd" d="M6.90322 13.9582C4.89328 15.7726 4.06197 17.5106 4.06197 19.0913C4.06197 20.6719 4.89328 22.4099 6.90322 24.2243C8.91293 26.0385 11.9351 27.7654 15.8424 29.2573C23.6431 32.2358 34.5568 34.1206 46.7127 34.1206C58.8686 34.1206 69.7823 32.2358 77.583 29.2573C81.4903 27.7654 84.5124 26.0385 86.5221 24.2243C88.5321 22.4099 89.3634 20.6719 89.3634 19.0913C89.3634 17.5106 88.5321 15.7726 86.5221 13.9582C84.5124 12.144 81.4903 10.4171 77.583 8.92521C69.7823 5.94677 58.8686 4.06197 46.7127 4.06197C34.5568 4.06197 23.6431 5.94677 15.8424 8.92521C11.9351 10.4171 8.91293 12.144 6.90322 13.9582ZM14.3935 5.13044C22.7644 1.93428 34.1915 0 46.7127 0C59.2338 0 70.661 1.93428 79.0319 5.13044C83.2103 6.72586 86.7317 8.67514 89.244 10.9431C91.7561 13.2108 93.4254 15.9608 93.4254 19.0913C93.4254 22.2217 91.7561 24.9718 89.244 27.2395C86.7317 29.5074 83.2103 31.4567 79.0319 33.0521C70.661 36.2483 59.2338 38.1825 46.7127 38.1825C34.1915 38.1825 22.7644 36.2483 14.3935 33.0521C10.215 31.4567 6.69369 29.5074 4.18137 27.2395C1.66928 24.9718 0 22.2217 0 19.0913C0 15.9608 1.66928 13.2108 4.18137 10.9431C6.69369 8.67514 10.215 6.72586 14.3935 5.13044Z" transform="translate(3 30.9087)" fill="#61DAFB"/>
<path fill-rule="evenodd" clip-rule="evenodd" d="M6.90322 13.9582C4.89328 15.7726 4.06197 17.5106 4.06197 19.0913C4.06197 20.6719 4.89328 22.4099 6.90322 24.2243C8.91293 26.0385 11.9351 27.7654 15.8424 29.2573C23.6431 32.2358 34.5568 34.1206 46.7127 34.1206C58.8686 34.1206 69.7823 32.2358 77.583 29.2573C81.4903 27.7654 84.5124 26.0385 86.5221 24.2243C88.5321 22.4099 89.3634 20.6719 89.3634 19.0913C89.3634 17.5106 88.5321 15.7726 86.5221 13.9582C84.5124 12.144 81.4903 10.4171 77.583 8.92521C69.7823 5.94677 58.8686 4.06197 46.7127 4.06197C34.5568 4.06197 23.6431 5.94677 15.8424 8.92521C11.9351 10.4171 8.91293 12.144 6.90322 13.9582ZM14.3935 5.13044C22.7644 1.93428 34.1915 0 46.7127 0C59.2338 0 70.661 1.93428 79.0319 5.13044C83.2103 6.72586 86.7317 8.67514 89.244 10.9431C91.7561 13.2108 93.4254 15.9608 93.4254 19.0913C93.4254 22.2217 91.7561 24.9718 89.244 27.2395C86.7317 29.5074 83.2103 31.4567 79.0319 33.0521C70.661 36.2483 59.2338 38.1825 46.7127 38.1825C34.1915 38.1825 22.7644 36.2483 14.3935 33.0521C10.215 31.4567 6.69369 29.5074 4.18137 27.2395C1.66928 24.9718 0 22.2217 0 19.0913C0 15.9608 1.66928 13.2108 4.18137 10.9431C6.69369 8.67514 10.215 6.72586 14.3935 5.13044Z" transform="translate(42.8896) rotate(60)" fill="#61DAFB"/>
<path fill-rule="evenodd" clip-rule="evenodd" d="M6.90322 13.9582C4.89328 15.7726 4.06197 17.5106 4.06197 19.0913C4.06197 20.6719 4.89328 22.4099 6.90322 24.2243C8.91293 26.0385 11.9351 27.7654 15.8424 29.2573C23.6431 32.2358 34.5568 34.1206 46.7127 34.1206C58.8686 34.1206 69.7823 32.2358 77.583 29.2573C81.4903 27.7654 84.5124 26.0385 86.5221 24.2243C88.5321 22.4099 89.3634 20.6719 89.3634 19.0913C89.3634 17.5106 88.5321 15.7726 86.5221 13.9582C84.5124 12.144 81.4903 10.4171 77.583 8.92521C69.7823 5.94677 58.8686 4.06197 46.7127 4.06197C34.5568 4.06197 23.6431 5.94677 15.8424 8.92521C11.9351 10.4171 8.91293 12.144 6.90322 13.9582ZM14.3935 5.13044C22.7644 1.93428 34.1915 0 46.7127 0C59.2338 0 70.661 1.93428 79.0319 5.13044C83.2103 6.72586 86.7317 8.67514 89.244 10.9431C91.7561 13.2108 93.4254 15.9608 93.4254 19.0913C93.4254 22.2217 91.7561 24.9718 89.244 27.2395C86.7317 29.5074 83.2103 31.4567 79.0319 33.0521C70.661 36.2483 59.2338 38.1825 46.7127 38.1825C34.1915 38.1825 22.7644 36.2483 14.3935 33.0521C10.215 31.4567 6.69369 29.5074 4.18137 27.2395C1.66928 24.9718 0 22.2217 0 19.0913C0 15.9608 1.66928 13.2108 4.18137 10.9431C6.69369 8.67514 10.215 6.72586 14.3935 5.13044Z" transform="translate(89.6025 19.0913) rotate(120)" fill="#61DAFB"/>
</svg>
